<svg width="251" height="188" viewBox="0 0 251 188" fill="none" xmlns="http://www.w3.org/2000/svg">
<g filter="url(#filter0_d_131_147)">
<path d="M106.163 33.3269C108.678 27.4081 116.409 25.9603 120.895 30.5681L126.982 36.8201C130.27 40.1976 135.607 40.4657 139.217 37.4349L148.554 29.5961C153.99 25.0322 162.322 28.3024 163.202 35.3456V35.3456C163.921 41.0926 169.822 44.6574 175.243 42.6193L186.021 38.5672C192.122 36.2735 197.793 42.7929 194.675 48.5169V48.5169C192.026 53.3804 195.775 59.2557 201.302 58.9022L207.078 58.5328C213.969 58.0921 217.17 66.9206 211.598 70.9989V70.9989C206.917 74.4243 208.288 81.7444 213.891 83.2441V83.2441C220.562 85.0296 220.772 94.4182 214.188 96.5009L208.67 98.2464C203.39 99.9167 202.021 106.75 206.25 110.326V110.326C211.227 114.534 208.3 122.663 201.783 122.733L190.269 122.855C184.477 122.917 180.266 128.375 181.676 133.993V133.993C183.403 140.877 176.82 146.941 170.1 144.653L158.56 140.724C154.097 139.205 149.219 141.386 147.376 145.725L143.964 153.755C141.449 159.674 133.718 161.122 129.232 156.514L123.145 150.262C119.857 146.885 114.519 146.617 110.909 149.647L101.572 157.486C96.1361 162.05 87.8044 158.78 86.924 151.737V151.737C86.2056 145.99 80.3044 142.425 74.8831 144.463L64.105 148.515C58.0041 150.809 52.3339 144.289 55.4513 138.565V138.565C58.1001 133.702 54.3509 127.827 48.8242 128.18L43.0484 128.55C36.1571 128.99 32.9561 120.162 38.5286 116.083V116.083C43.2091 112.658 41.8383 105.338 36.2355 103.838V103.838C29.5649 102.053 29.3544 92.6642 35.9383 90.5815L41.4563 88.8359C46.7365 87.1656 48.1057 80.3319 43.8765 76.7563V76.7563C38.8992 72.5482 41.8262 64.4189 48.3437 64.3496L59.8577 64.2271C65.6491 64.1655 69.8605 58.7069 68.4507 53.0893V53.0893C66.7229 46.2049 73.3068 40.1415 80.026 42.4291L91.5667 46.3582C96.029 47.8773 100.907 45.6962 102.751 41.3578L106.163 33.3269Z" fill="#FFFEFC"/>
</g>
<path d="M94.1369 80.476C94.0797 80.2185 94.0582 80.0079 94.0722 79.8443C94.0847 79.6721 94.1484 79.535 94.2635 79.433C94.3855 79.3207 94.565 79.2289 94.8021 79.1577C95.0391 79.0865 95.3563 79.0137 95.7537 78.9393C96.1511 78.8649 96.4861 78.8155 96.7588 78.7913C97.0315 78.7671 97.2536 78.7836 97.4253 78.8409C97.604 78.8879 97.739 78.9878 97.8302 79.1406C97.9284 79.2832 97.9975 79.4848 98.0373 79.7456L98.2743 81.2974C98.325 81.6634 98.4075 81.9609 98.5219 82.1899C98.645 82.4172 98.8023 82.5889 98.9939 82.7051C99.1926 82.8109 99.4315 82.869 99.7106 82.8793C99.9898 82.8897 100.319 82.8592 100.699 82.7881C101.088 82.7153 101.411 82.6235 101.667 82.5129C101.932 82.4007 102.134 82.2601 102.272 82.0911C102.409 81.9135 102.489 81.6973 102.513 81.4425C102.537 81.1876 102.515 80.8788 102.447 80.516L102.276 79.6761C102.22 79.3738 102.156 79.1041 102.084 78.867C102.012 78.6213 101.913 78.4073 101.79 78.2247C101.675 78.0406 101.521 77.8862 101.327 77.7614C101.143 77.635 100.897 77.538 100.589 77.4705L95.7332 76.3947C95.2004 76.2709 94.7447 76.1059 94.3663 75.8996C93.9879 75.6932 93.667 75.4359 93.4036 75.1275C93.1488 74.8176 92.9378 74.4547 92.7705 74.0389C92.6032 73.6232 92.4608 73.1491 92.3432 72.6167L91.391 68.2481C91.2524 67.6034 91.2452 66.9923 91.3695 66.4146C91.5025 65.8353 91.7882 65.3079 92.2267 64.8323C92.6652 64.3568 93.2625 63.9409 94.0184 63.5847C94.7814 63.2183 95.7244 62.9299 96.8475 62.7196C97.9705 62.5093 98.9497 62.4377 99.7849 62.5049C100.627 62.5617 101.334 62.7333 101.907 63.0196C102.487 63.3043 102.945 63.6926 103.278 64.1845C103.612 64.6764 103.831 65.248 103.935 65.8991L104.776 71.1067C104.816 71.3675 104.816 71.5864 104.778 71.7635C104.738 71.932 104.644 72.0747 104.496 72.1919C104.347 72.3004 104.136 72.3934 103.864 72.4711C103.601 72.5472 103.271 72.6224 102.874 72.6969C102.468 72.7729 102.124 72.8238 101.843 72.8497C101.57 72.8739 101.344 72.8625 101.166 72.8155C100.985 72.7599 100.846 72.6608 100.748 72.5182C100.648 72.367 100.57 72.1626 100.512 71.9051L99.311 66.3492C99.2312 65.9707 99.1314 65.6764 99.0116 65.4664C98.8918 65.2563 98.7471 65.1046 98.5776 65.0111C98.4167 64.9161 98.2251 64.8715 98.0026 64.8774C97.7872 64.873 97.5413 64.8967 97.2648 64.9485C96.9884 65.0002 96.7462 65.0679 96.5384 65.1516C96.3375 65.225 96.175 65.3359 96.0507 65.4843C95.9352 65.6311 95.8595 65.8241 95.8238 66.0633C95.7882 66.3025 95.8016 66.6129 95.8641 66.9947L96.6898 72.1917C96.7427 72.5216 96.8098 72.8086 96.8913 73.0527C96.9798 73.2865 97.0937 73.4887 97.2329 73.6593C97.3808 73.8283 97.5592 73.9693 97.7681 74.0822C97.9771 74.1951 98.2354 74.2853 98.5431 74.3529L103.072 75.329C103.565 75.4333 103.984 75.5694 104.328 75.7374C104.68 75.8951 104.975 76.1125 105.215 76.3896C105.455 76.6666 105.645 77.0154 105.787 77.436C105.937 77.855 106.053 78.3788 106.135 79.0072L106.244 79.7378C106.332 80.3025 106.31 80.8521 106.178 81.3866C106.045 81.9211 105.776 82.4186 105.371 82.879C104.964 83.3308 104.409 83.7343 103.706 84.0894C103.011 84.4342 102.14 84.7045 101.095 84.9003C100.05 85.096 99.1354 85.1555 98.352 85.0786C97.5772 85.0002 96.9175 84.8197 96.3728 84.5372C95.8367 84.2531 95.4095 83.8815 95.0911 83.4225C94.7726 82.9635 94.5565 82.4541 94.4427 81.8942L94.1369 80.476ZM107.779 71.282C107.624 70.5957 107.656 69.9773 107.874 69.4266C108.1 68.8657 108.447 68.3761 108.914 67.9577C109.39 67.5378 109.955 67.1905 110.61 66.9158C111.272 66.6309 111.961 66.4213 112.678 66.287C113.361 66.1592 114.045 66.1116 114.731 66.1442C115.415 66.1681 116.041 66.2921 116.611 66.5163C117.181 66.7405 117.659 67.0756 118.047 67.5217C118.441 67.9575 118.69 68.5234 118.794 69.2193L119.495 74.0373C119.517 74.2031 119.511 74.3383 119.477 74.4431C119.452 74.5462 119.379 74.6358 119.259 74.7119C119.139 74.788 118.96 74.8573 118.721 74.9199C118.491 74.9809 118.182 75.0478 117.793 75.1206L112.739 76.067L113.186 78.8805C113.239 79.2104 113.321 79.4812 113.432 79.6929C113.552 79.9029 113.698 80.0633 113.871 80.174C114.043 80.2847 114.243 80.3501 114.471 80.3701C114.698 80.3902 114.95 80.3743 115.226 80.3225C115.779 80.219 116.163 80.022 116.376 79.7316C116.59 79.4412 116.64 78.9893 116.525 78.3759L116.45 77.9742C116.419 77.8101 116.415 77.6721 116.439 77.5604C116.461 77.44 116.527 77.3382 116.637 77.2551C116.754 77.1617 116.926 77.0802 117.154 77.0106C117.383 76.941 117.691 76.8698 118.08 76.797C118.46 76.7259 118.769 76.6814 119.008 76.6636C119.246 76.6459 119.432 76.6602 119.566 76.7067C119.706 76.7429 119.804 76.8096 119.858 76.9068C119.92 77.0023 119.967 77.1322 119.998 77.2963L120.105 77.8665C120.232 78.549 120.19 79.1337 119.977 79.6206C119.764 80.1076 119.439 80.5216 119.003 80.8627C118.574 81.2023 118.058 81.4778 117.454 81.6893C116.858 81.8992 116.237 82.0648 115.589 82.1861C114.932 82.309 114.282 82.3683 113.637 82.3638C112.991 82.3507 112.395 82.2477 111.849 82.0549C111.31 81.8517 110.841 81.5417 110.441 81.1248C110.049 80.7063 109.774 80.1453 109.616 79.4417L107.779 71.282ZM115.615 73.5165L114.774 69.744C114.698 69.3828 114.6 69.0972 114.48 68.8871C114.369 68.6754 114.237 68.5213 114.085 68.4246C113.941 68.3263 113.78 68.276 113.6 68.2738C113.428 68.2614 113.247 68.273 113.057 68.3085C112.841 68.349 112.646 68.4078 112.473 68.485C112.298 68.5535 112.153 68.6612 112.037 68.808C111.93 68.9532 111.855 69.1462 111.81 69.387C111.775 69.6262 111.786 69.928 111.846 70.2924L112.44 74.1111L115.615 73.5165ZM120.267 59.0045C120.233 58.8231 120.222 58.6687 120.234 58.5413C120.253 58.4036 120.33 58.2864 120.464 58.1898C120.597 58.0932 120.8 58.0061 121.072 57.9284C121.35 57.8404 121.723 57.7528 122.189 57.6654C122.656 57.5781 123.031 57.5258 123.314 57.5086C123.604 57.4811 123.828 57.4882 123.988 57.5298C124.148 57.5714 124.257 57.6538 124.316 57.7769C124.382 57.8897 124.432 58.0369 124.466 58.2183L127.932 78.9491C127.963 79.1132 127.966 79.2469 127.94 79.35C127.915 79.4531 127.847 79.5419 127.735 79.6164C127.624 79.6908 127.458 79.7578 127.236 79.8171C127.024 79.8748 126.736 79.9377 126.373 80.0056C126.01 80.0735 125.715 80.1199 125.487 80.1447C125.268 80.1679 125.093 80.1649 124.962 80.1357C124.84 80.1049 124.749 80.046 124.688 79.9591C124.627 79.8721 124.581 79.7466 124.55 79.5824L120.267 59.0045ZM128.126 57.5328C128.092 57.3514 128.081 57.197 128.093 57.0695C128.112 56.9319 128.189 56.8147 128.323 56.7181C128.456 56.6215 128.659 56.5344 128.931 56.4567C129.209 56.3687 129.582 56.2811 130.048 56.1937C130.515 56.1064 130.89 56.0541 131.173 56.0369C131.463 56.0094 131.687 56.0165 131.847 56.0581C132.007 56.0997 132.116 56.182 132.175 56.3051C132.241 56.418 132.291 56.5651 132.325 56.7466L135.791 77.4774C135.822 77.6415 135.825 77.7751 135.799 77.8782C135.774 77.9814 135.706 78.0702 135.594 78.1446C135.483 78.2191 135.317 78.286 135.095 78.3454C134.883 78.4031 134.595 78.4659 134.232 78.5339C133.869 78.6018 133.574 78.6482 133.346 78.673C133.127 78.6961 132.952 78.6931 132.821 78.664C132.699 78.6332 132.608 78.5743 132.547 78.4873C132.486 78.4004 132.44 78.2749 132.409 78.1107L128.126 57.5328ZM137.524 65.7117C137.369 65.0255 137.396 64.4078 137.607 63.8588C137.824 63.2995 138.162 62.8115 138.62 62.3948C139.087 61.9765 139.648 61.63 140.303 61.3553C140.956 61.072 141.642 60.8632 142.359 60.7289C143.076 60.5947 143.79 60.5414 144.502 60.5691C145.212 60.5881 145.856 60.7089 146.434 60.9315C147.021 61.1525 147.512 61.4852 147.908 61.9296C148.312 62.3638 148.565 62.9288 148.668 63.6248L149.906 71.8832C150.013 72.5965 149.961 73.2233 149.749 73.7637C149.536 74.2955 149.214 74.7535 148.786 75.1378C148.355 75.5135 147.841 75.8244 147.244 76.0704C146.644 76.3079 146.012 76.4889 145.347 76.6134C144.673 76.7396 144.014 76.8005 143.369 76.796C142.723 76.7829 142.127 76.6799 141.581 76.487C141.042 76.2839 140.577 75.9731 140.186 75.5546C139.794 75.1361 139.519 74.575 139.361 73.8715L137.524 65.7117ZM142.931 73.3103C142.984 73.6402 143.061 73.9118 143.164 74.125C143.275 74.3367 143.413 74.4987 143.577 74.611C143.75 74.7218 143.95 74.7871 144.177 74.8072C144.413 74.8256 144.682 74.8065 144.984 74.7499C145.589 74.6366 146.005 74.4245 146.233 74.1136C146.47 73.801 146.517 73.3138 146.375 72.6518L144.519 64.1738C144.443 63.8125 144.345 63.5269 144.225 63.3169C144.114 63.1052 143.982 62.951 143.83 62.8543C143.677 62.7577 143.512 62.7082 143.332 62.706C143.152 62.6952 142.953 62.71 142.737 62.7504C142.521 62.7909 142.331 62.8489 142.166 62.9244C142 62.9913 141.863 63.0974 141.756 63.2426C141.649 63.3878 141.578 63.58 141.542 63.8192C141.515 64.0567 141.532 64.3577 141.591 64.7222L142.931 73.3103ZM89.907 105.948C89.8927 105.617 89.9179 105.338 89.9828 105.111C90.0591 104.882 90.2305 104.683 90.4969 104.514C90.7748 104.343 91.187 104.188 91.7334 104.05C92.2776 103.901 93.022 103.737 93.9666 103.561C94.8996 103.386 95.6468 103.27 96.2083 103.212C96.7677 103.143 97.2021 103.139 97.5117 103.201C97.8327 103.26 98.0645 103.383 98.207 103.571C98.3495 103.759 98.4797 104.009 98.5977 104.321L108.117 129.846C108.221 130.149 108.262 130.398 108.239 130.593C108.225 130.774 108.135 130.928 107.968 131.055C107.812 131.179 107.581 131.282 107.274 131.363C106.968 131.445 106.59 131.527 106.141 131.611C105.588 131.715 105.142 131.787 104.804 131.826C104.477 131.863 104.213 131.853 104.011 131.796C103.81 131.738 103.647 131.631 103.522 131.476C103.407 131.307 103.297 131.071 103.193 130.769L101.711 126.772L95.1283 128.005L95.1932 132.267C95.1939 132.588 95.1711 132.849 95.125 133.048C95.0767 133.236 94.9691 133.394 94.802 133.52C94.635 133.647 94.3866 133.753 94.0569 133.839C93.7387 133.922 93.3031 134.015 92.7503 134.119C92.301 134.203 91.9188 134.263 91.6034 134.298C91.2997 134.331 91.047 134.319 90.8454 134.261C90.6439 134.203 90.4981 134.094 90.4082 133.932C90.3161 133.758 90.2697 133.511 90.269 133.189L89.907 105.948ZM100.526 123.596L95.0128 108.765L94.8573 108.795L95.0837 124.615L100.526 123.596ZM106.795 107.078C106.61 106.218 106.606 105.402 106.783 104.63C106.961 103.857 107.336 103.155 107.909 102.523C108.494 101.889 109.29 101.335 110.298 100.86C111.315 100.371 112.573 99.9868 114.07 99.7064C115.556 99.4281 116.856 99.3338 117.969 99.4233C119.092 99.4991 120.041 99.7268 120.816 100.106C121.59 100.486 122.2 101.004 122.644 101.66C123.089 102.315 123.381 103.078 123.52 103.946L124.885 112.382C124.938 112.729 124.939 113.021 124.888 113.257C124.834 113.482 124.709 113.672 124.512 113.828C124.312 113.973 124.032 114.097 123.67 114.201C123.319 114.302 122.879 114.403 122.349 114.502C121.807 114.603 121.355 114.67 120.991 114.702C120.628 114.735 120.327 114.719 120.089 114.657C119.86 114.58 119.68 114.447 119.549 114.257C119.416 114.055 119.311 113.783 119.235 113.44L117.338 104.549C117.231 104.044 117.098 103.652 116.938 103.372C116.778 103.092 116.586 102.89 116.36 102.765C116.145 102.638 115.895 102.578 115.61 102.583C115.323 102.578 114.995 102.609 114.627 102.678C114.258 102.747 113.941 102.836 113.675 102.946C113.407 103.044 113.191 103.191 113.025 103.389C112.871 103.585 112.77 103.843 112.722 104.161C112.675 104.48 112.693 104.894 112.776 105.403L115.834 124.503C115.913 124.989 116.029 125.384 116.182 125.689C116.346 125.993 116.556 126.221 116.811 126.376C117.076 126.517 117.394 126.595 117.767 126.609C118.139 126.622 118.578 126.582 119.085 126.487C119.592 126.392 120.016 126.271 120.358 126.123C120.712 125.974 120.981 125.786 121.165 125.561C121.359 125.322 121.471 125.033 121.503 124.693C121.535 124.353 121.5 123.942 121.398 123.461L120.944 121.418C120.867 121.074 120.85 120.791 120.892 120.569C120.943 120.333 121.063 120.143 121.251 120.001C121.448 119.845 121.722 119.716 122.072 119.615C122.423 119.513 122.863 119.413 123.393 119.314C123.911 119.217 124.335 119.155 124.664 119.129C125.005 119.101 125.272 119.129 125.466 119.212C125.67 119.281 125.821 119.419 125.92 119.627C126.016 119.824 126.091 120.096 126.144 120.444L126.455 122.389C126.572 123.142 126.543 123.88 126.369 124.604C126.192 125.317 125.834 125.98 125.293 126.594C124.764 127.206 124.031 127.749 123.094 128.222C122.167 128.682 121.006 129.042 119.612 129.303C118.219 129.564 117 129.644 115.955 129.541C114.911 129.439 114.025 129.199 113.299 128.822C112.584 128.444 112.014 127.948 111.59 127.336C111.165 126.724 110.871 126.046 110.708 125.302L106.795 107.078ZM127.151 98.9379C127.083 98.6406 127.067 98.3933 127.101 98.196C127.136 97.9988 127.253 97.8279 127.452 97.6832C127.663 97.5364 127.973 97.4069 128.381 97.2947C128.787 97.171 129.336 97.0444 130.027 96.915L130.407 96.8438L135.072 95.9702C136.615 95.6811 137.965 95.5655 139.12 95.6234C140.276 95.6813 141.247 95.9046 142.035 96.2935C142.835 96.6803 143.463 97.2304 143.918 97.9439C144.383 98.6438 144.692 99.498 144.845 100.507L147.612 118.051C147.751 118.919 147.718 119.73 147.513 120.484C147.32 121.235 146.941 121.914 146.375 122.521C145.809 123.128 145.05 123.657 144.097 124.11C143.142 124.551 141.974 124.901 140.592 125.16L135.046 126.199C134.619 126.278 134.276 126.325 134.016 126.338C133.757 126.351 133.55 126.33 133.397 126.275C133.243 126.22 133.13 126.122 133.056 125.981C132.991 125.826 132.93 125.629 132.873 125.389L127.151 98.9379ZM140.237 122.311C140.778 122.21 141.226 122.084 141.579 121.935C141.931 121.774 142.198 121.575 142.38 121.338C142.573 121.099 142.68 120.811 142.701 120.473C142.73 120.122 142.694 119.705 142.592 119.224L138.625 100.813C138.521 100.32 138.388 99.9274 138.226 99.6358C138.076 99.342 137.893 99.1318 137.679 99.0051C137.464 98.8783 137.214 98.812 136.926 98.8062C136.639 98.8004 136.311 98.832 135.943 98.901L133.679 99.3249L137.386 122.845L140.237 122.311ZM148.618 94.9178C148.55 94.6205 148.534 94.3732 148.569 94.1759C148.603 93.9787 148.72 93.8078 148.92 93.6631C149.131 93.5163 149.44 93.3868 149.848 93.2746C150.254 93.1509 150.803 93.0243 151.494 92.8949L151.874 92.8237L156.539 91.9501C158.083 91.661 159.432 91.5455 160.587 91.6033C161.743 91.6612 162.715 91.8845 163.503 92.2734C164.302 92.6602 164.93 93.2103 165.386 93.9238C165.851 94.6237 166.16 95.4779 166.313 96.4864L169.079 114.031C169.218 114.899 169.185 115.71 168.981 116.464C168.788 117.215 168.408 117.894 167.842 118.501C167.276 119.108 166.517 119.637 165.564 120.09C164.61 120.531 163.441 120.881 162.059 121.14L156.513 122.178C156.087 122.258 155.744 122.305 155.484 122.318C155.224 122.33 155.017 122.309 154.864 122.255C154.711 122.2 154.597 122.102 154.523 121.961C154.458 121.806 154.397 121.609 154.34 121.369L148.618 94.9178ZM161.704 118.291C162.246 118.19 162.693 118.064 163.047 117.915C163.398 117.753 163.665 117.554 163.847 117.318C164.041 117.079 164.148 116.79 164.168 116.453C164.197 116.102 164.161 115.685 164.059 115.203L160.093 96.7928C159.989 96.2996 159.855 95.9073 159.694 95.6157C159.543 95.322 159.361 95.1117 159.146 94.985C158.932 94.8582 158.681 94.7919 158.394 94.7861C158.106 94.7803 157.778 94.8119 157.41 94.8809L155.147 95.3048L158.854 118.825L161.704 118.291Z" fill="#222E60"/>
<defs>
<filter id="filter0_d_131_147" x="19.1147" y="27.4882" width="199.897" height="140.106" filterUnits="userSpaceOnUse" color-interpolation-filters="sRGB">
<feFlood flood-opacity="0" result="BackgroundImageFix"/>
<feColorMatrix in="SourceAlpha" type="matrix" values="0 0 0 0 0 0 0 0 0 0 0 0 0 0 0 0 0 0 127 0" result="hardAlpha"/>
<feOffset dx="-8" dy="4"/>
<feGaussianBlur stdDeviation="2"/>
<feComposite in2="hardAlpha" operator="out"/>
<feColorMatrix type="matrix" values="0 0 0 0 0 0 0 0 0 0 0 0 0 0 0 0 0 0 0.74 0"/>
<feBlend mode="normal" in2="BackgroundImageFix" result="effect1_dropShadow_131_147"/>
<feBlend mode="normal" in="SourceGraphic" in2="effect1_dropShadow_131_147" result="shape"/>
</filter>
</defs>
</svg>
