<svg width="531" height="49" viewBox="0 0 531 49" fill="none" xmlns="http://www.w3.org/2000/svg">
<path fill-rule="evenodd" clip-rule="evenodd" d="M172.234 2.55586C172.078 1.10086 170.636 0.425862 169.376 0.526862C168.047 0.261862 166.643 0.308862 165.319 0.498862C164.716 0.584862 164.018 1.19886 163.929 1.74386C162.615 9.82586 163.794 18.1949 163.086 26.3399C162.735 30.3599 162.665 34.3799 162.417 38.4049C162.256 41.0009 161.606 43.9869 162.955 46.4229C163.271 46.9939 164.001 47.2759 164.672 47.3049C166.718 47.3929 169.248 47.4759 170.402 45.9949C171.142 45.6979 171.71 45.0849 171.704 44.1349C171.667 37.2119 172.055 30.3769 172.248 23.4649C172.348 19.8599 172.244 16.2499 172.223 12.6449C172.205 9.24086 172.601 5.95986 172.234 2.55586Z" fill="#3F1D15"/>
<mask id="mask0_407_4" style="mask-type:luminance" maskUnits="userSpaceOnUse" x="0" y="0" width="42" height="48">
<path d="M0 0.249817H41.728V47.2458H0V0.249817Z" fill="#3F1D15"/>
</mask>
<g mask="url(#mask0_407_4)">
<path fill-rule="evenodd" clip-rule="evenodd" d="M39.5782 0.283796L35.5042 0.250796C34.4072 0.239796 33.4862 0.955796 33.3882 1.9008C32.9722 5.9138 31.9082 16.0048 31.4142 19.1778C31.0162 21.7228 30.4282 26.1938 30.1602 28.2548C30.1172 28.5878 29.6002 28.6728 29.4202 28.3758C28.0902 26.1968 24.9622 21.0528 24.5222 20.1168C24.2922 19.6248 23.7552 19.2978 23.1412 19.2698L19.2082 19.0928C18.6182 19.0658 18.0742 19.3648 17.8512 19.8378C17.2302 21.1568 15.5002 25.1308 14.6382 27.1188C14.5012 27.4348 13.9702 27.3898 13.9062 27.0558C13.4352 24.5628 9.93023 7.3428 8.92923 3.1358C8.74123 2.3488 8.47423 1.4668 7.65923 1.0798C7.15123 0.837797 6.53823 0.848796 5.95823 0.866796L2.30823 0.979796C1.60523 1.0018 0.815228 1.0578 0.358228 1.5218C-0.119772 2.0108 -0.0227718 2.7338 0.102228 3.3648C1.47423 10.2938 5.63623 38.6378 6.66123 45.6638C6.79423 46.5688 7.68323 47.2458 8.73723 47.2458H13.3722C14.2092 47.2458 14.9522 46.7878 15.2222 46.1008C16.2052 43.5878 18.5602 37.5978 19.6892 34.9298C19.8062 34.6568 20.2422 34.6458 20.3782 34.9108C21.5262 37.1548 24.7562 43.1898 26.2082 45.8978C26.6512 46.7238 27.6062 47.2468 28.6582 47.2398C31.0942 47.2208 35.2482 47.1508 35.3282 46.8918C36.5152 43.1018 41.2912 6.7518 41.7212 2.3188C41.8262 1.2308 40.8412 0.296796 39.5782 0.283796Z" fill="#3F1D15"/>
</g>
<path fill-rule="evenodd" clip-rule="evenodd" d="M55.2679 8.61584C57.8459 8.19384 69.2689 8.16084 72.0849 7.48684C72.7149 7.33684 73.4199 6.83684 73.5249 6.24184C73.7689 4.85284 73.7959 3.41184 73.2299 2.39584C73.0999 1.53584 72.4309 0.712842 71.4339 0.547842C68.3139 0.0308424 48.0169 0.159842 47.3309 0.568842C46.0669 0.995842 42.1009 27.0988 40.9669 39.0238C40.8079 40.6968 40.3509 43.0938 40.9589 44.7208C40.9639 44.7358 40.9739 44.7448 40.9789 44.7588C41.0189 45.5118 41.7029 46.2638 42.5219 46.5518C47.4219 48.2768 53.3269 47.6978 58.4969 47.3938C61.9339 47.1918 65.7129 47.4208 69.0869 46.8198C71.2809 46.4298 72.4129 45.6848 72.8079 43.7538C73.0439 42.6058 73.4279 40.6968 72.5829 39.6718C71.4299 38.2678 69.5159 38.9318 67.8669 39.0288C62.3829 39.3498 56.8219 39.0598 51.3169 39.2988C51.3979 35.2788 52.1469 31.0198 52.7379 27.0438C54.8719 27.0008 57.0079 27.0108 59.1439 27.0278C60.4459 27.0388 61.6959 27.1678 62.5249 26.1338C63.2499 25.2288 63.1659 23.7958 63.1379 22.7688C63.0699 20.3428 63.3889 17.9498 59.7339 18.0408C57.8289 18.0888 55.9169 18.1788 54.0039 18.2658C54.4559 15.0918 54.8939 11.9168 55.2679 8.73284C55.2729 8.69284 55.2659 8.65584 55.2679 8.61584ZM105.803 25.7758C105.826 31.2998 98.9979 37.0028 97.2049 37.3838C96.7129 37.4888 96.2199 37.3488 96.2299 36.9438C96.3159 33.3088 96.0469 29.6088 95.9569 26.1698C95.8619 22.5048 95.6939 18.8178 95.8769 15.1558C95.9709 13.2768 96.1149 11.4338 96.0869 9.59984C96.0789 9.11084 96.6689 8.74384 97.2469 8.90284C98.5849 9.26984 105.742 11.8028 105.803 25.7758ZM115.07 16.4238C113.743 11.3368 105.803 0.308843 91.1639 0.0848425C89.6779 0.0618425 88.1609 0.817843 87.6049 1.91984C87.3779 2.36784 87.3249 2.85784 87.2749 3.33984C86.5049 10.6928 86.1979 34.7998 86.1929 39.1298C86.1899 42.1738 86.2309 45.9298 90.8579 46.4818C95.4179 47.0258 101.603 44.6868 105.2 42.6618C109.51 40.2378 112.625 35.3048 114.223 31.3918C116.073 26.8618 116.279 21.0618 115.07 16.4238ZM136.456 33.4618C136.148 33.9194 135.824 34.3663 135.486 34.8018C134.976 35.4588 134.386 36.1288 133.502 36.4398C132.509 36.7878 131.32 36.5998 130.392 36.1498C127.868 34.9298 127.242 32.2638 127.012 29.9158C126.602 25.7588 126.698 21.4878 128.059 17.4398C129.039 14.5258 131.926 7.74384 137.249 9.68084C140.504 10.8668 140.604 15.2908 140.662 17.6908C140.794 23.2048 139.722 28.6098 136.456 33.4608M148.624 13.7838C148.003 9.51384 146.573 4.42084 142.213 1.94984C138.189 -0.330157 130.611 -0.523158 126.92 2.42484C125.916 3.22784 125.31 4.28684 124.762 5.33384C121.13 12.2588 119.099 19.6328 118.612 27.1248C118.245 32.8248 118.202 39.9978 123.694 44.3088C129.504 50.8158 138.714 46.5908 142.959 40.8668C143.315 40.3868 143.645 39.8948 143.956 39.3938C149.468 32.2578 149.83 22.0658 148.624 13.7838ZM205.4 0.309842H177.521C176.448 0.309842 175.601 1.12284 175.681 2.08184C175.823 3.77184 175.279 7.23184 176.34 7.77984C177.168 8.20584 182.715 8.26184 185.129 8.26484C185.743 8.26584 186.223 8.71084 186.197 9.26084C186.008 13.2008 185.338 27.8258 185.361 35.6938C185.367 37.7148 185.215 39.7258 185.084 41.7388C184.999 43.0318 184.796 46.6828 186.284 46.9138C189.664 47.4398 194.772 47.4118 194.764 45.8208C194.735 40.2268 195.893 13.6568 196.12 8.53384C196.14 8.06384 196.58 7.70384 197.103 7.72484C199.336 7.81584 204.833 7.91284 205.991 6.72584C206.772 5.92384 206.813 1.70284 206.813 1.70284C206.893 0.954843 206.238 0.309842 205.4 0.309842ZM240.67 33.9878C239.899 39.6238 232.845 39.8818 229.85 39.7328C229.093 39.6948 228.497 39.1438 228.473 38.4638C228.395 36.3498 228.238 31.7788 228.197 28.5338C228.19 27.8088 228.856 27.2288 229.663 27.2588C233.131 27.3888 241.448 28.2908 240.669 33.9888M228.59 7.77084C228.621 7.11884 229.26 6.59084 230.032 6.60384C233.392 6.66684 236.614 7.71584 237.109 10.9138C237.643 14.3568 233.681 17.3548 229.651 18.0398C228.891 18.1698 228.177 17.6818 228.198 17.0278C228.303 13.9418 228.438 10.8548 228.59 7.77084ZM244.304 25.0848C242.507 23.9281 240.563 23.0176 238.524 22.3778C242.679 20.4158 245.694 17.2588 245.694 12.3558C245.696 7.33584 240.472 1.43584 232.386 0.711842C228.299 0.344842 224.209 1.05184 221.941 1.55984C220.876 1.79984 220.127 2.65384 220.111 3.63984C219.983 11.3378 219.478 43.8628 220.066 45.0498C222.014 48.9758 228.567 48.0308 232.213 47.5348C237.933 46.7558 245.099 43.4958 247.715 38.6978C250.101 34.3228 248.799 27.9798 244.304 25.0848ZM279.498 0.610842H273.405C272.544 0.610842 271.858 1.25384 271.903 2.02484C272.005 3.76884 272.173 6.61884 272.243 7.53484C272.38 9.33584 272.503 11.2518 272.316 13.0548C272.093 15.2258 270.912 19.6088 267.595 18.4318C265.887 17.8268 264.255 15.9598 263.279 14.6328C260.691 11.1128 260.108 5.84684 259.879 1.74484C259.808 0.476842 258.672 -0.140158 257.361 0.0268424C256.058 0.191842 250.087 1.43684 250.218 2.79284C250.727 8.10384 252.393 15.5538 255.517 20.2068C260.422 27.5128 270.032 26.3248 270.032 26.3248L269.35 44.2818C269.288 45.9028 270.737 47.2468 272.547 47.2468H275.042C277.311 47.2468 279.177 45.6468 279.269 43.6138C279.478 39.0568 281.008 9.94184 281.404 2.39484C281.456 1.42084 280.587 0.610842 279.498 0.610842ZM399.106 11.2318L399.338 20.7668C401.806 20.3458 407.002 19.0198 406.951 15.3418C406.937 14.3438 406.582 13.5568 405.865 12.9348C404.231 11.5148 401.031 11.2148 399.106 11.2318ZM398.17 23.2498C397.876 23.2498 397.589 23.1448 397.369 22.9538C397.248 22.8504 397.15 22.7227 397.081 22.5791C397.012 22.4354 396.975 22.279 396.97 22.1198L396.678 10.1538C396.664 9.54584 397.14 9.03084 397.769 8.97584C398.034 8.95184 404.274 8.43884 407.472 11.2158C408.696 12.2788 409.328 13.6558 409.351 15.3108C409.446 22.2558 398.727 23.2088 398.271 23.2468C398.237 23.2494 398.204 23.2504 398.17 23.2498ZM390.141 4.28184C389.441 5.14184 389.43 6.49684 389.419 7.80584C389.418 8.10184 389.415 8.39084 389.405 8.66984C389.335 10.7128 389.283 12.8258 389.246 15.1278C389.177 19.3458 389.171 23.6368 389.165 27.7878V27.9048C389.161 30.8948 389.162 38.7088 389.163 42.4248C389.163 42.6268 389.25 42.8188 389.409 42.9668C389.502 43.0529 389.612 43.1194 389.732 43.1623C389.851 43.2053 389.978 43.2238 390.105 43.2168L396.281 42.9498C396.821 42.9318 397.246 42.5408 397.24 42.0778L397.077 29.8128C397.071 29.3478 397.356 28.9228 397.799 28.7378C398.074 28.6218 404.585 25.9978 411.382 31.7518C415.559 35.2848 416.147 40.0938 416.127 42.6468C416.127 42.6848 416.188 42.7398 416.285 42.7428L423.984 42.9528C424.117 42.957 424.248 42.911 424.349 42.8238C424.384 42.7931 424.413 42.7554 424.433 42.7131C424.453 42.6707 424.464 42.6247 424.466 42.5778C424.707 27.8218 416.435 25.0628 412.868 24.5608C412.631 24.5305 412.409 24.4292 412.231 24.2704C412.053 24.1115 411.927 23.9025 411.87 23.6708C411.817 23.4403 411.838 23.199 411.928 22.9807C412.019 22.7624 412.176 22.5778 412.377 22.4528C416.058 20.1008 417.799 16.6568 417.28 12.7568C416.893 9.85484 414.612 7.54384 410.498 5.88684C402.688 2.74584 391.616 3.27584 390.141 4.28184ZM390.081 45.5288C389.216 45.5339 388.381 45.2129 387.742 44.6298C387.434 44.3505 387.189 44.0101 387.02 43.6305C386.851 43.2509 386.763 42.8403 386.762 42.4248C386.762 38.7098 386.76 30.8938 386.764 27.9028V27.7828C386.771 23.6248 386.778 19.3258 386.845 15.0928C386.882 12.7768 386.935 10.6498 387.006 8.59284C387.015 8.33284 387.017 8.06284 387.019 7.78884C387.033 6.22084 387.048 4.26884 388.316 2.77784C390.079 0.702842 400.932 0.670842 408.337 2.71984C415.147 4.60184 419.063 7.97184 419.661 12.4618C420.195 16.4738 418.818 20.0808 415.756 22.8278C426.264 26.0318 426.931 38.6048 426.867 42.6148C426.86 42.9704 426.78 43.3208 426.632 43.6443C426.484 43.9678 426.272 44.2576 426.008 44.4958C425.44 45.0189 424.688 45.2957 423.916 45.2658L416.217 45.0558C414.81 45.0178 413.716 43.9518 413.726 42.6298C413.744 40.4708 413.257 36.4158 409.799 33.4898C405.365 29.7358 401.142 30.2308 399.489 30.6358L399.64 42.0478C399.663 43.7598 398.198 45.2018 396.376 45.2628L390.2 45.5278L390.081 45.5288ZM457.74 3.76484L433.016 3.82684C432.339 3.82884 431.785 4.28784 431.782 4.85084L431.559 42.2128C431.56 42.3047 431.58 42.3953 431.618 42.4789C431.656 42.5626 431.711 42.6375 431.779 42.6988C431.959 42.8728 432.245 42.9758 432.499 42.9688L455.028 42.7168C455.571 42.7108 456.081 42.5008 456.426 42.1398C456.718 41.8338 456.862 41.4508 456.833 41.0598L456.66 37.6448C456.623 37.1428 456.096 36.7308 455.462 36.7308H455.457L442.766 36.7868C441.942 36.7868 441.202 36.4868 440.656 35.9518C440.402 35.7088 440.202 35.4158 440.068 35.0913C439.934 34.7668 439.868 34.4179 439.876 34.0668L440.003 28.6948C440.036 27.2828 441.256 26.1398 442.781 26.0928C445.223 26.0168 449.806 25.8728 451.428 25.8098C451.661 25.8055 451.882 25.7112 452.047 25.5468C452.102 25.4913 452.145 25.425 452.174 25.3521C452.203 25.2791 452.216 25.2011 452.213 25.1228L451.926 21.6758C451.879 20.8638 451.123 20.2518 450.202 20.2518H450.201C447.911 20.2538 444.703 20.2618 442.54 20.2768C441.637 20.2668 440.767 19.9408 440.15 19.3368C439.864 19.0644 439.638 18.7353 439.486 18.3706C439.335 18.006 439.261 17.6137 439.269 17.2188L439.349 14.0998C439.394 12.2908 440.969 10.8458 442.936 10.8108C446.532 10.7478 453.033 10.6458 456.508 10.5918C456.821 10.5921 457.122 10.471 457.348 10.2538C457.43 10.1757 457.494 10.0814 457.538 9.97687C457.581 9.87236 457.602 9.75997 457.6 9.64684C457.599 9.60784 457.6 9.56784 457.603 9.52884L458.03 3.91984C458.009 3.84784 457.9 3.76484 457.74 3.76484ZM432.488 45.2808C431.585 45.2808 430.712 44.9388 430.087 44.3408C429.794 44.0671 429.56 43.7357 429.4 43.3675C429.24 42.9993 429.158 42.6022 429.159 42.2008L429.382 4.83784C429.392 3.01084 431.02 1.51884 433.01 1.51384L457.732 1.45184H457.741C459.21 1.45184 460.391 2.51484 460.434 3.87684C460.434 3.91684 460.434 3.95684 460.431 3.99684L460.001 9.64684C460.009 10.4648 459.684 11.2468 459.084 11.8508C458.434 12.5058 457.51 12.8908 456.547 12.9048C453.073 12.9578 446.574 13.0598 442.981 13.1248C442.304 13.1358 441.761 13.5888 441.749 14.1558L441.669 17.2758C441.669 17.358 441.685 17.4394 441.718 17.5148C441.751 17.5902 441.799 17.6579 441.859 17.7138C442.023 17.8738 442.261 17.9638 442.512 17.9638H442.521C444.688 17.9468 447.905 17.9408 450.198 17.9388H450.202C452.397 17.9388 454.206 19.5108 454.32 21.5198L454.607 24.9668C454.631 25.3578 454.574 25.7496 454.439 26.1173C454.304 26.4849 454.094 26.8206 453.822 27.1028C453.244 27.7158 452.407 28.0868 451.526 28.1208C449.9 28.1838 445.306 28.3288 442.856 28.4048C442.61 28.4128 442.406 28.5658 442.402 28.7468L442.275 34.1198C442.275 34.1598 442.283 34.1993 442.3 34.2357C442.316 34.2721 442.34 34.3045 442.37 34.3308C442.474 34.4266 442.611 34.4779 442.752 34.4738H442.755C446.041 34.4588 453.089 34.4258 455.448 34.4178H455.463C457.35 34.4178 458.927 35.7718 459.056 37.5078L459.228 40.9198C459.303 41.9268 458.937 42.9258 458.193 43.7048C457.401 44.5348 456.259 45.0168 455.056 45.0308L432.528 45.2808H432.488ZM479.932 13.0358H479.857C476.727 13.1358 475.488 19.0898 475.157 22.3848L484.433 22.2538C484.13 18.9758 482.956 13.0358 479.933 13.0358H479.932ZM473.869 24.7158C473.545 24.7158 473.236 24.5908 473.01 24.3678C472.897 24.2573 472.808 24.1245 472.749 23.9778C472.691 23.8311 472.663 23.6738 472.668 23.5158C472.674 23.3928 472.796 20.4758 473.621 17.4888C475.134 12.0128 477.804 10.7878 479.778 10.7248C481.799 10.6598 484.486 11.7468 485.988 17.2788C486.798 20.2688 486.908 23.2308 486.911 23.3548C486.921 23.6648 486.802 23.9668 486.579 24.1908C486.354 24.4174 486.048 24.5463 485.729 24.5498L473.886 24.7158H473.869ZM486.153 31.4758C487.058 31.4758 487.995 31.6878 488.109 33.2258C488.274 35.4438 488.865 40.7678 489.12 43.0218L496.658 42.9748C496.621 39.3288 496.37 27.6548 494.661 17.9118C492.969 8.27184 488.449 3.77684 480.436 3.76484H480.411C476.528 3.76484 473.409 5.09484 470.871 7.83384C462.503 16.8688 463.846 38.0138 464.289 42.9508L471.911 42.8268C471.794 39.4722 471.667 36.1178 471.531 32.7638C471.524 32.606 471.55 32.4485 471.608 32.3016C471.666 32.1546 471.754 32.0215 471.867 31.9108C472.288 31.4898 472.288 31.4898 480.067 31.4698C481.387 31.4658 482.707 31.4668 484.028 31.4698H484.598C485.038 31.4698 485.48 31.4718 485.92 31.4758H486.153ZM488.043 45.3418C487.433 45.3418 486.918 44.8988 486.851 44.3118C486.815 43.9998 486.003 36.9188 485.745 33.7878C485.363 33.7848 484.98 33.7848 484.597 33.7848L484.022 33.7838C482.706 33.7805 481.39 33.7802 480.074 33.7828C479.445 33.7848 475.872 33.8218 473.977 33.8478C474.135 37.7478 474.35 43.8558 474.352 43.9238C474.363 44.2338 474.245 44.5338 474.022 44.7598C473.797 44.9863 473.492 45.1152 473.173 45.1188L463.221 45.2808C463.214 45.2813 463.208 45.2813 463.201 45.2808C462.591 45.2808 462.078 44.8408 462.008 44.2568C461.878 43.1608 458.911 17.2718 469.081 6.29284C472.057 3.08084 475.871 1.45184 480.412 1.45184H480.439C489.705 1.46484 495.131 6.72384 497.029 17.5268C499.107 29.3768 499.065 43.9838 499.064 44.1298C499.061 44.7638 498.53 45.2768 497.871 45.2818L488.051 45.3418H488.043ZM514.534 43.3548C517.781 43.3548 521 43.4948 524.066 43.6418C525.096 43.6918 526.071 43.7398 526.958 43.5518C527.256 43.2078 527.918 41.4218 527.918 36.5488C527.918 36.4608 527.797 36.3618 527.623 36.3588C524.973 36.3138 518.466 36.1938 515.253 36.0268C513.852 35.9538 512.761 34.8368 512.818 33.5378C513.043 28.4478 513.347 8.95284 513.363 7.00484C513.37 6.14684 513.377 5.25984 513.063 4.55584C512.892 4.16684 512.493 3.61884 511.03 3.35084C509.118 2.99884 507.068 3.07284 505.26 3.13784C504.487 3.16584 504.486 3.28984 504.479 3.81084C504.395 10.0548 504.309 16.3008 504.223 22.5438L504.087 32.1298C504.055 33.8878 504.021 35.7058 504.14 37.4578C504.16 37.7478 504.174 38.0448 504.186 38.3458C504.249 39.7928 504.308 41.1608 505.181 42.0988C505.745 42.7058 506.705 43.1388 507.884 43.3188C508.934 43.4798 510.03 43.4448 511.189 43.4088L511.573 43.3968C512.559 43.3684 513.547 43.3544 514.534 43.3548ZM525.43 45.9998C524.93 45.9998 524.433 45.9758 523.946 45.9528C519.999 45.7628 515.796 45.5858 511.646 45.7088L511.268 45.7208C510.048 45.7588 508.784 45.7988 507.507 45.6038C506.289 45.4168 504.587 44.9258 503.394 43.6438C501.946 42.0868 501.862 40.1498 501.788 38.4418C501.776 38.1618 501.764 37.8818 501.745 37.6088C501.62 35.7608 501.654 33.8948 501.687 32.0888L501.823 22.5138C501.909 16.2698 501.996 10.0248 502.079 3.78084C502.102 1.94584 503.201 0.896842 505.171 0.825842C507.011 0.759842 509.301 0.677843 511.479 1.07784C513.395 1.42984 514.672 2.29384 515.271 3.64784C515.781 4.79384 515.771 5.97784 515.763 7.02184C515.748 8.97584 515.441 28.5218 515.216 33.6358C515.22 33.6528 515.269 33.7108 515.383 33.7168C518.555 33.8818 525.029 34.0018 527.665 34.0468C529.152 34.0708 530.318 35.1698 530.318 36.5488C530.318 44.1738 528.874 45.4868 527.615 45.7788C526.878 45.9508 526.148 45.9998 525.43 45.9998ZM364.062 45.4308H296.676C295.682 45.4308 294.876 44.6538 294.876 43.6958C294.876 42.7378 295.682 41.9608 296.676 41.9608H364.062C365.056 41.9608 365.862 42.7378 365.862 43.6958C365.862 44.6538 365.056 45.4308 364.062 45.4308ZM350.712 6.24684C346.13 6.24684 341.574 6.16184 338.216 5.90784C328.579 5.17884 296.858 5.90584 296.538 5.91284C295.54 5.93684 294.719 5.17784 294.695 4.22084C294.671 3.26284 295.459 2.46784 296.452 2.44384C297.764 2.41384 328.676 1.70484 338.498 2.44884C348.121 3.17884 368.681 2.45284 368.888 2.44484C369.868 2.40584 370.717 3.15684 370.753 4.11484C370.791 5.07184 370.015 5.87584 369.022 5.91284C368.461 5.93284 359.544 6.24684 350.712 6.24684Z" fill="#3F1D15"/>
<path fill-rule="evenodd" clip-rule="evenodd" d="M397.124 42.9208C394.681 43.5868 392.503 44.4228 389.869 44.4238C389.344 44.4238 388.823 44.3378 388.307 44.2358C388.269 44.0118 388.135 43.8018 387.853 43.6708C387.674 43.5879 387.506 43.4827 387.353 43.3578C387.552 43.1388 387.663 42.8458 387.6 42.5658C387.43 41.8128 387.359 41.0308 387.249 40.2628C387.592 34.3978 387.236 28.4698 387.234 22.6088C387.23 19.9546 387.132 17.3013 386.942 14.6538L387.01 13.4568C387.198 9.96283 386.32 6.37183 389.803 4.04883C389.833 4.02783 389.853 4.00283 389.882 3.98083C389.89 3.97583 389.895 3.96883 389.901 3.96383C390.464 3.49383 390.346 2.71783 389.571 2.46283C388.64 2.15583 387.483 2.59683 386.545 3.24683C384.311 4.31383 384.069 6.00883 383.899 9.09883C383.622 14.1668 383.259 19.2038 383.207 24.2778C383.157 29.1638 383.04 34.0588 383.106 38.9478C382.279 41.5888 382.216 45.8348 384.812 46.9348C387.048 47.8818 390.421 47.7958 392.784 47.4708C395.398 47.1128 396.813 46.1868 398.217 44.1948C398.665 43.5598 397.922 42.7028 397.124 42.9208ZM483.54 1.92783C483.54 1.92783 473.868 -1.25317 467.006 4.38583C464.604 6.35883 462.175 12.8558 461.429 15.3388C459.771 20.8428 459.122 26.5038 458.557 32.1608C458.287 34.8508 458.052 37.5478 458.053 40.2538C458.053 40.7338 457.997 41.3888 457.968 42.0828C457.776 42.0111 457.565 42.0111 457.374 42.0828C456.063 42.5478 454.92 43.3048 453.613 43.7718C451.149 44.6538 447.979 44.4648 445.348 44.5418C443.178 44.6068 440.991 44.6248 438.821 44.6018C436.686 44.5798 432.898 44.7918 430.899 43.8458C430.913 43.8188 430.929 43.7938 430.941 43.7648C431.161 43.1828 431.009 42.6898 430.588 42.2278C430.524 42.1583 430.45 42.0993 430.368 42.0528C430.142 41.2378 430.148 40.3368 430.19 39.5078C430.326 38.6398 430.145 37.6038 430.145 36.8278C430.145 35.9438 430.143 35.0598 430.141 34.1768C430.555 34.0958 430.925 33.8058 430.936 33.3508C431.062 27.5128 430.509 21.6448 430.556 15.8008C430.561 15.2498 430.132 14.9788 429.676 14.9678C429.656 14.2358 429.636 13.5028 429.614 12.7708C429.576 11.5108 429.693 10.0548 429.507 8.72083C429.673 6.67383 430.115 4.45683 431.58 3.66683C431.646 3.65683 431.704 3.64083 431.773 3.63183C432.103 3.58583 432.303 3.43083 432.401 3.23183C432.901 2.71083 432.694 1.69883 431.74 1.77983C429.423 1.97583 426.895 2.98583 426.049 5.82983C424.856 9.84183 424.946 14.0858 425.288 18.2048L425.298 18.3238C425.225 20.8038 425.218 23.2878 425.147 25.7838C425.107 27.1818 424.425 36.5298 425.735 42.0318C425.709 42.3798 425.715 42.7018 425.753 43.0018C425.316 42.7908 424.683 42.8438 424.385 43.2968C424.254 43.3049 424.128 43.3454 424.017 43.4148C423.809 43.5559 423.617 43.7177 423.442 43.8978C421.962 44.4658 420.644 44.8738 418.819 44.7978C417.383 44.7398 415.764 44.5028 414.353 43.9478C414.316 43.6978 414.299 43.4318 414.257 43.1668C414.413 43.0169 414.506 42.813 414.517 42.5968C414.546 42.0665 414.53 41.5346 414.47 41.0068C414.379 38.9018 413.82 36.3188 412.243 34.8968C411.083 33.1588 409.51 31.7638 407.559 31.3048C407.454 31.2819 407.346 31.2748 407.239 31.2838C406.499 30.7028 405.551 30.2438 404.306 29.9538C404.076 29.8939 403.832 29.9197 403.619 30.0264C403.407 30.1332 403.24 30.3135 403.151 30.5338C402.085 30.2208 400.829 30.0908 399.334 30.1908C398.1 30.2748 398.089 32.0098 399.334 31.9258C405.854 31.4858 406.744 36.3488 407.676 40.9758C408.084 43.0048 408.043 45.2098 409.94 46.6258C412.178 48.2958 415.765 48.0618 418.448 47.9238C419.802 47.8538 421.267 47.7538 422.488 47.1688C422.587 47.1218 422.668 47.0688 422.755 47.0168C423.945 46.6198 424.945 45.9368 425.618 44.9458C425.675 44.9028 425.73 44.8558 425.788 44.8008C426.015 44.5828 426.091 44.3458 426.067 44.1288C426.067 44.1248 426.07 44.1218 426.072 44.1178C427.529 47.1628 433.201 46.9758 437.242 46.9608C441.922 46.9428 446.6 46.8198 451.278 46.7438C454.508 46.6928 456.39 46.3028 458.026 44.0208C458.106 44.5698 458.263 45.0558 458.546 45.3948C458.58 45.4348 458.616 45.4748 458.656 45.5118C459.206 47.2898 461.815 47.4298 464.266 47.6038C465.894 47.7188 468.225 48.0298 470.023 47.6988C470.277 47.8018 470.589 47.8168 470.905 47.6888C472.432 47.0678 473.942 46.1008 474.23 44.5168C474.366 43.7728 473.543 43.3188 472.94 43.4528C472.792 43.4238 472.64 43.4256 472.492 43.4579C472.345 43.4902 472.206 43.5525 472.084 43.6408C469.637 45.4938 466.392 44.2638 463.729 44.8828C463.687 44.744 463.607 44.6201 463.497 44.5258C462.716 43.8678 462.201 42.9828 461.865 41.9888C462.082 41.2448 462.085 40.4968 462.037 39.6728C461.767 34.9718 462.462 30.3588 462.569 25.6628C462.576 25.4988 462.532 25.3366 462.443 25.1988C462.779 24.2068 462.91 23.1458 463.116 22.1358C463.505 20.2298 463.941 18.3558 464.509 16.4988C464.822 15.7888 465.118 15.1008 465.358 14.4468C465.419 14.2944 465.426 14.1256 465.377 13.9688C467.205 9.22883 470.246 4.94583 475.812 3.26883C476.261 3.13583 476.462 2.80783 476.479 2.47483C478.019 2.29383 479.716 2.34883 481.589 2.69183C482.806 2.91383 483.54 1.92783 483.54 1.92783ZM406.91 13.9878C406.729 13.3428 406.428 12.7588 405.977 12.3588C405.828 12.2256 405.641 12.1417 405.442 12.1188C404.858 11.2448 403.879 10.5248 402.418 10.0908C402.209 10.0273 401.984 10.0385 401.782 10.1226C401.581 10.2068 401.415 10.3585 401.313 10.5518C400.339 10.1558 399.225 9.96183 398.123 9.95183C396.878 9.93983 396.877 11.6748 398.123 11.6858C400.789 11.7098 403.473 13.3588 401.893 16.0498C400.911 17.7268 399.303 18.0998 397.753 19.1278C396.957 19.6558 397.261 20.6448 398.241 20.7438C398.496 20.7708 398.748 20.7818 398.998 20.7868C399.158 21.1748 399.612 21.4708 400.15 21.3578C400.742 21.23 401.314 21.0264 401.854 20.7518C402.106 21.1448 402.689 21.3658 403.181 21.0998C404.837 20.2028 406.455 18.8338 406.945 17.0968C407.057 16.7008 407.115 16.2198 407.122 15.7168C407.222 15.4708 407.322 15.2238 407.42 14.9698C407.606 14.4818 407.318 14.1298 406.91 13.9878Z" fill="#3F1D15"/>
<path fill-rule="evenodd" clip-rule="evenodd" d="M459.13 10.6848C458.94 10.1228 458.118 9.72882 457.529 10.2778C457.248 10.5398 457.022 10.8478 456.666 11.0258C456.406 11.1591 456.161 11.32 455.935 11.5058C455.72 11.3734 455.465 11.3204 455.215 11.3558C452.857 11.6608 450.484 11.8248 448.131 12.1398C446.061 12.1778 443.99 12.2638 441.921 12.2648C441.229 12.2648 440.923 12.7998 440.998 13.2748L440.952 13.2768C439.707 13.2768 439.705 15.0128 440.952 15.0118C444.668 15.0088 448.341 14.7908 452.039 14.4978C453.325 14.3968 455.259 14.4538 456.459 13.9708C457.604 13.5098 458.144 12.5188 459.059 11.7938C459.499 11.4458 459.426 10.9928 459.13 10.6838M452.206 25.8908C451.428 26.7408 450.883 27.4108 449.606 27.7028C448.608 27.9328 447.518 27.9428 446.495 27.9498C444.917 27.9608 443.338 27.9498 441.76 27.9498C441.541 27.9664 441.337 28.065 441.188 28.2259C441.039 28.3868 440.956 28.598 440.956 28.8173C440.956 29.0366 441.039 29.2479 441.188 29.4087C441.337 29.5696 441.541 29.6682 441.76 29.6848C444.028 29.6848 446.356 29.8248 448.61 29.5788C451.085 29.3098 452.01 28.8288 453.575 27.1188C454.359 26.2608 452.997 25.0268 452.205 25.8908M484.949 22.5538C485.093 20.9668 484.638 19.1368 484.339 17.6108C483.986 15.8128 483.228 13.7678 481.735 12.4668C481.385 12.1618 480.857 12.1708 480.492 12.3888C480.214 12.1614 479.913 11.9652 479.592 11.8038C478.502 11.2628 477.525 12.7608 478.616 13.3028C480.716 14.3458 480.675 17.6288 480.976 19.5118C481.183 20.7878 480.864 22.3118 481.809 23.3638C482.195 23.7928 482.842 23.6508 483.204 23.3008C483.267 23.3998 483.336 23.4948 483.421 23.5758C484.206 24.3258 485.42 23.3488 484.949 22.5538Z" fill="#3F1D15"/>
<path fill-rule="evenodd" clip-rule="evenodd" d="M527.395 44.1619C526.712 44.0689 526.012 44.2619 525.323 44.5069C525.011 44.2589 524.641 44.2819 524.347 44.4529C522.748 44.5629 521.169 44.7479 519.587 44.8909C519.468 44.7565 519.316 44.6553 519.146 44.5973C518.976 44.5392 518.794 44.5264 518.618 44.5599C517.36 44.7719 516.088 44.8829 514.832 45.0999C514.823 45.1029 514.816 45.1069 514.806 45.1079C512.973 45.3299 511.034 45.4849 509.238 45.4379C509.306 45.0419 509.11 44.6309 508.555 44.5429C507.449 44.3689 506.363 44.2999 505.283 44.1899C504.486 43.4729 503.939 42.5789 502.955 41.9379C502.88 41.8918 502.798 41.8593 502.712 41.8419C502.836 39.9499 502.552 37.9749 502.132 36.1319C502.108 35.9996 502.049 35.8762 501.96 35.7748C501.872 35.6734 501.758 35.5978 501.63 35.5559C501.625 35.3489 501.618 35.1419 501.621 34.9329C501.677 31.3189 502.025 27.7129 502.203 24.1029C502.381 20.4669 502.505 16.8299 502.584 13.1909C502.645 10.4059 503.436 6.67686 502.275 4.02986C502.249 3.96986 502.209 3.91586 502.17 3.86286C502.733 3.26486 503.588 2.84286 504.915 2.72286C506.142 2.61186 506.155 0.875858 504.915 0.987858C500.448 1.39086 499.526 3.74786 499.195 7.43386C498.706 12.8639 498.662 18.2659 498.625 23.7089C498.585 29.1849 497.975 34.6359 497.978 40.1189C497.979 41.1639 497.929 42.4359 498.136 43.5819C497.888 43.4519 497.573 43.4379 497.243 43.6319C495.259 44.8009 490.304 45.3799 488.511 43.9599C487.766 43.3699 487.461 42.5399 487.311 41.6449C487.619 39.9489 487.129 37.5969 486.623 35.7619C486.927 35.6159 487.226 35.4439 487.513 35.2109C487.963 34.8449 487.85 34.1009 487.317 33.8479C485.737 33.0979 483.25 33.3669 481.545 33.4739C481.479 33.4769 481.413 33.4839 481.346 33.4899C481.173 33.3647 480.964 33.2982 480.751 33.2999C478.382 33.2479 475.523 32.8789 473.309 33.8499C472.796 34.0769 472.636 34.8829 473.114 35.2139C473.167 35.2509 473.222 35.2809 473.277 35.3129C473.191 35.5329 473.118 35.7679 473.075 36.0359C472.993 36.5399 473.211 36.9119 473.75 37.1029C475.14 37.5929 477.374 36.8859 478.775 36.7889C479.922 36.7089 481.077 36.7069 482.229 36.7019C482.962 38.8849 483.261 41.3569 483.695 43.5469C484.122 45.7019 484.205 46.7249 486.823 46.9989C489.426 47.2719 492.323 47.0689 494.928 46.8619C496.876 46.7059 497.749 46.4289 498.533 44.8799C498.769 45.3769 499.11 45.7979 499.584 46.1099C499.71 46.3489 499.856 46.5639 500.024 46.7419C501.877 48.7119 506.484 48.0109 508.939 48.0959C515.069 48.3079 523.679 50.5059 527.974 45.4359C528.327 45.0199 527.972 44.2399 527.395 44.1619ZM308.76 28.9069C308.341 30.6209 306.324 31.4949 304.496 31.8879C304.046 31.9849 302.236 32.2389 300.826 32.3059C300.499 32.3219 300.228 32.0819 300.224 31.7779C300.194 29.2559 300.065 25.2419 300.027 24.0809C300.021 23.8979 300.174 23.7449 300.37 23.7389C302.157 23.6759 310.036 23.6899 308.76 28.9069ZM305.888 16.9369C306.79 19.2539 301.458 20.0679 300.059 20.1169C300.001 20.0669 299.971 20.0389 299.913 19.9899C299.884 18.6099 299.87 17.2309 299.879 15.8529C299.88 15.6709 300.035 15.5229 300.231 15.5179C302.398 15.4639 305.272 15.3529 305.888 16.9369ZM309.815 22.1069C309.37 21.7988 308.899 21.5311 308.406 21.3069C309.85 20.2769 310.736 18.9069 310.412 17.1649C309.526 12.3849 303.319 11.9479 298.803 11.9359C298.37 11.7928 297.9 11.8059 297.476 11.9729C296.417 12.1329 295.883 12.9329 295.867 13.7379C295.819 13.8915 295.793 14.051 295.788 14.2119C295.659 20.2479 295.219 34.0049 296.219 34.7449C296.51 34.9599 296.832 35.1409 297.179 35.2909C297.276 35.3409 297.381 35.3789 297.489 35.4089C299.887 36.2939 303.252 35.8699 305.589 35.3959C308.583 34.7869 311.681 32.8379 312.665 30.1499C313.775 27.1229 312.592 24.0509 309.815 22.1069ZM326.287 16.0329C327.386 16.2359 327.967 12.5849 326.287 12.4289H315.63C313.697 12.4289 313.973 29.5519 314.012 32.8309C314.022 33.7089 314.272 34.8989 315.445 35.0479C317.05 35.2509 324.032 35.3139 325.418 35.4199C325.91 35.4569 326.333 35.1029 326.348 34.6419L326.44 32.0959C326.456 31.7389 326.148 31.4419 325.764 31.4489C324.337 31.4719 321.173 31.5229 320.293 31.5229C319.826 31.5229 319.327 31.5529 318.822 31.5809C318.508 31.5979 318.248 31.3649 318.256 31.0709C318.31 28.9309 317.898 24.9109 318.316 24.6209C318.733 24.3309 322.546 24.4709 324.078 24.3989C324.448 24.3819 324.738 24.1009 324.748 23.7559L324.806 21.6459C324.816 21.2709 324.491 20.9629 324.086 20.9709C322.69 20.9969 320.578 21.0489 319.309 21.0409C318.999 21.0399 318.759 20.7889 318.792 20.5009C318.952 19.1199 319.091 18.0309 319.165 16.6499C319.183 16.3039 319.493 16.0329 319.865 16.0329H326.287ZM334.368 13.6959C334.455 11.2339 329.632 11.2359 329.544 13.6959C329.419 17.2129 328.168 27.9339 328.138 29.7139C328.113 31.0949 327.842 32.7519 328.435 34.0679C329.288 35.9589 333.415 35.8499 333.173 33.5589C333.169 33.5239 334.253 16.9239 334.368 13.6959ZM351.735 12.1629C350.896 11.2469 348.246 11.9039 348.246 11.9039C347.85 11.8749 347.507 12.1559 347.491 12.5259C347.408 14.4159 347.173 19.7799 347.078 22.2319C347.065 22.5399 346.625 22.6349 346.469 22.3629C345.148 20.0489 341.961 14.7689 340.334 12.5349C340.198 12.3461 340.033 12.1795 339.846 12.0409C338.681 10.8889 336.225 11.3309 336.337 13.4079C336.629 18.8209 336.266 31.6719 336.173 34.7299C336.163 35.0929 336.476 35.3909 336.866 35.3909H339.71C340.15 35.3909 340.51 35.0679 340.524 34.6579C340.6 32.4089 340.839 26.6439 340.79 22.6829C340.787 22.4289 341.158 22.3549 341.264 22.5879C342.556 25.4319 345.58 32.8919 347.515 35.0279C348.489 36.1029 350.698 35.6519 350.947 34.1149C351.418 31.2099 352.573 13.0789 351.735 12.1629ZM370.6 22.6279C369.015 20.3719 365.32 21.5899 363.071 21.7619C360.063 21.9919 360.037 26.5619 363.071 26.3289C364.148 26.2469 365.277 25.9569 366.386 25.8869C366.367 26.1669 366.336 26.4429 366.296 26.7209C366.128 27.8019 365.749 28.8709 364.901 29.6539C362.203 32.1479 359.407 29.6629 358.572 27.0759C357.738 24.4909 358.282 21.7009 359.077 19.1659C360.044 16.0819 362.939 15.7609 365.787 16.5439C368.713 17.3469 369.962 12.9429 367.041 12.1389C361.017 10.4839 355.827 12.9479 354.244 18.9359C352.926 23.9179 352.937 31.3439 358.33 34.2079C363.32 36.8559 369.401 33.7549 370.72 28.6269C371.153 26.9369 371.684 24.1719 370.6 22.6279Z" fill="#3F1D15"/>
</svg>
